<svg width="14" height="14" viewBox="0 0 14 14" fill="none" xmlns="http://www.w3.org/2000/svg">
<path d="M3.86059 12.8826L0.333259 13.6666L1.11726 10.1393C0.600947 9.17351 0.331611 8.09502 0.333259 6.99992C0.333259 3.31792 3.31793 0.333252 6.99993 0.333252C10.6819 0.333252 13.6666 3.31792 13.6666 6.99992C13.6666 10.6819 10.6819 13.6666 6.99993 13.6666C5.90483 13.6682 4.82634 13.3989 3.86059 12.8826ZM4.05393 11.4739L4.48926 11.7073C5.26163 12.12 6.12419 12.3351 6.99993 12.3333C8.05476 12.3333 9.08591 12.0205 9.96297 11.4344C10.84 10.8484 11.5236 10.0154 11.9273 9.0409C12.331 8.06636 12.4366 6.994 12.2308 5.95944C12.025 4.92487 11.517 3.97456 10.7712 3.22868C10.0253 2.4828 9.07497 1.97485 8.04041 1.76906C7.00584 1.56328 5.93349 1.66889 4.95895 2.07256C3.98441 2.47623 3.15146 3.15982 2.56542 4.03688C1.97939 4.91394 1.66659 5.94509 1.66659 6.99992C1.66659 7.88925 1.88326 8.74525 2.29326 9.51059L2.52593 9.94592L2.08926 11.9106L4.05393 11.4739Z" fill="white"/>
</svg>
